<svg xmlns="http://www.w3.org/2000/svg" viewBox="0 0 520 260">
  <path d="M25 225c92-76 127-133 224-142 73-7 105-37 157-77" fill="none" stroke="#8a5b63" stroke-width="8" stroke-linecap="round"/>
  <path d="M140 150c-8-49-40-64-68-78M260 83c-8-35-27-51-52-62M348 56c28 0 49 10 69 29" fill="none" stroke="#8a5b63" stroke-width="5" stroke-linecap="round"/>
  <g fill="#f4bfd3" stroke="#c86b91" stroke-width="2">
    <g transform="translate(73 71)"><ellipse rx="18" ry="30" transform="rotate(0) translate(0 -18)"/><ellipse rx="18" ry="30" transform="rotate(72) translate(0 -18)"/><ellipse rx="18" ry="30" transform="rotate(144) translate(0 -18)"/><ellipse rx="18" ry="30" transform="rotate(216) translate(0 -18)"/><ellipse rx="18" ry="30" transform="rotate(288) translate(0 -18)"/><circle r="8" fill="#c83f3a"/></g>
    <g transform="translate(211 35) scale(.8)"><ellipse rx="18" ry="30" transform="translate(0 -18)"/><ellipse rx="18" ry="30" transform="rotate(72) translate(0 -18)"/><ellipse rx="18" ry="30" transform="rotate(144) translate(0 -18)"/><ellipse rx="18" ry="30" transform="rotate(216) translate(0 -18)"/><ellipse rx="18" ry="30" transform="rotate(288) translate(0 -18)"/><circle r="8" fill="#c83f3a"/></g>
    <g transform="translate(424 86) scale(.9)"><ellipse rx="18" ry="30" transform="translate(0 -18)"/><ellipse rx="18" ry="30" transform="rotate(72) translate(0 -18)"/><ellipse rx="18" ry="30" transform="rotate(144) translate(0 -18)"/><ellipse rx="18" ry="30" transform="rotate(216) translate(0 -18)"/><ellipse rx="18" ry="30" transform="rotate(288) translate(0 -18)"/><circle r="8" fill="#c83f3a"/></g>
    <g transform="translate(144 151) scale(.65)"><ellipse rx="18" ry="30" transform="translate(0 -18)"/><ellipse rx="18" ry="30" transform="rotate(72) translate(0 -18)"/><ellipse rx="18" ry="30" transform="rotate(144) translate(0 -18)"/><ellipse rx="18" ry="30" transform="rotate(216) translate(0 -18)"/><ellipse rx="18" ry="30" transform="rotate(288) translate(0 -18)"/><circle r="8" fill="#c83f3a"/></g>
  </g>
</svg>
